<svg xmlns="http://www.w3.org/2000/svg" version="1.1" xmlns:xlink="http://www.w3.org/1999/xlink" xmlns:svgjs="http://svgjs.com/svgjs" width="1440" height="560" preserveAspectRatio="none" viewBox="0 0 1440 560"><g mask="url(&quot;#SvgjsMask1496&quot;)" fill="none"><rect width="1440" height="560" x="0" y="0" fill="url(#SvgjsLinearGradient1497)"></rect><g transform="translate(0, 0)" stroke-linecap="round"><path d="M280 169.63 L280 229.63" stroke-width="30" stroke="rgba(255, 255, 255, 1)"></path><path d="M280 274.63 L280 390.37" stroke-width="30" stroke="#3a7cc3"></path><path d="M320 128.76 L320 248.76" stroke-width="30" stroke="rgba(255, 255, 255, 1)"></path><path d="M320 293.76 L320 431.24" stroke-width="30" stroke="rgba(255, 255, 255, 1)"></path><path d="M360 265.28999999999996 L360 294.71" stroke-width="30" stroke="rgba(255, 255, 255, 1)"></path><path d="M400 271.57 L400 288.43" stroke-width="30" stroke="rgba(255, 255, 255, 1)"></path><path d="M440 257.95 L440 302.05" stroke-width="30" stroke="rgba(255, 255, 255, 1)"></path><path d="M480 247.1 L480 312.9" stroke-width="30" stroke="#3a7cc3"></path><path d="M520 210.16 L520 349.85" stroke-width="30" stroke="#3a7cc3"></path><path d="M560 112.46 L560 172.45999999999998" stroke-width="30" stroke="#3a7cc3"></path><path d="M560 217.45999999999998 L560 337.46" stroke-width="30" stroke="rgba(255, 255, 255, 1)"></path><path d="M560 382.46 L560 447.54" stroke-width="30" stroke="rgba(255, 255, 255, 1)"></path><path d="M600 257.59000000000003 L600 302.42" stroke-width="30" stroke="#3a7cc3"></path><path d="M640 195.25 L640 225.25" stroke-width="30" stroke="#3a7cc3"></path><path d="M640 270.25 L640 364.75" stroke-width="30" stroke="rgba(255, 255, 255, 1)"></path><path d="M680 227.75 L680 332.25" stroke-width="30" stroke="#3a7cc3"></path><path d="M720 263.05 L720 296.95" stroke-width="30" stroke="rgba(255, 255, 255, 1)"></path><path d="M760 147.22 L760 297.22" stroke-width="30" stroke="#3a7cc3"></path><path d="M760 342.22 L760 412.78" stroke-width="30" stroke="rgba(255, 255, 255, 1)"></path><path d="M800 215.19 L800 245.19" stroke-width="30" stroke="rgba(255, 255, 255, 1)"></path><path d="M800 290.19 L800 344.81" stroke-width="30" stroke="rgba(255, 255, 255, 1)"></path><path d="M840 201.31 L840 261.31" stroke-width="30" stroke="rgba(255, 255, 255, 1)"></path><path d="M840 306.31 L840 358.69" stroke-width="30" stroke="#3a7cc3"></path><path d="M880 149.31 L880 209.31" stroke-width="30" stroke="#3a7cc3"></path><path d="M880 254.31 L880 410.69" stroke-width="30" stroke="#3a7cc3"></path><path d="M920 222.17 L920 337.83" stroke-width="30" stroke="rgba(255, 255, 255, 1)"></path><path d="M960 125.19 L960 245.19" stroke-width="30" stroke="#3a7cc3"></path><path d="M960 290.19 L960 320.19" stroke-width="30" stroke="rgba(255, 255, 255, 1)"></path><path d="M960 365.19 L960 434.81" stroke-width="30" stroke="rgba(255, 255, 255, 1)"></path><path d="M1000 266.87 L1000 293.13" stroke-width="30" stroke="#3a7cc3"></path><path d="M1040 144.06 L1040 415.94" stroke-width="30" stroke="rgba(255, 255, 255, 1)"></path><path d="M1080 262.25 L1080 297.75" stroke-width="30" stroke="rgba(255, 255, 255, 1)"></path><path d="M1120 211.63 L1120 241.63" stroke-width="30" stroke="rgba(255, 255, 255, 1)"></path><path d="M1120 286.63 L1120 348.37" stroke-width="30" stroke="#3a7cc3"></path><path d="M1160 157.02 L1160 217.02" stroke-width="30" stroke="#3a7cc3"></path><path d="M1160 262.02 L1160 322.02" stroke-width="30" stroke="#3a7cc3"></path><path d="M1160 367.02 L1160 402.98" stroke-width="30" stroke="rgba(255, 255, 255, 1)"></path></g></g><defs><mask id="SvgjsMask1496"><rect width="1440" height="560" fill="#ffffff"></rect></mask><linearGradient x1="50%" y1="0%" x2="50%" y2="100%" gradientUnits="userSpaceOnUse" id="SvgjsLinearGradient1497"><stop stop-color="#0e2a47" offset="0"></stop><stop stop-color="rgba(0, 0, 0, 1)" offset="1"></stop></linearGradient></defs></svg>