<svg xmlns="http://www.w3.org/2000/svg" version="1.1" xmlns:xlink="http://www.w3.org/1999/xlink" xmlns:svgjs="http://svgjs.com/svgjs" width="600" height="1000" preserveAspectRatio="none" viewBox="0 0 600 1000"><g mask="url(&quot;#SvgjsMask1505&quot;)" fill="none"><rect width="600" height="1000" x="0" y="0" fill="url(#SvgjsLinearGradient1506)"></rect><g transform="translate(0, 0)" stroke-linecap="round"><path d="M160 444.47 L160 555.53" stroke-width="15" stroke="rgba(255, 255, 255, 1)"></path><path d="M180 453 L180 547" stroke-width="15" stroke="#3a7cc3"></path><path d="M200 255.57 L200 744.43" stroke-width="15" stroke="#3a7cc3"></path><path d="M220 290.96 L220 709.04" stroke-width="15" stroke="#3a7cc3"></path><path d="M240 399.07 L240 600.93" stroke-width="15" stroke="rgba(255, 255, 255, 1)"></path><path d="M260 340.24 L260 659.76" stroke-width="15" stroke="rgba(255, 255, 255, 1)"></path><path d="M280 349.08 L280 650.92" stroke-width="15" stroke="#3a7cc3"></path><path d="M300 352.51 L300 647.49" stroke-width="15" stroke="#3a7cc3"></path><path d="M320 427.26 L320 572.74" stroke-width="15" stroke="#3a7cc3"></path><path d="M340 357.81 L340 642.18" stroke-width="15" stroke="rgba(255, 255, 255, 1)"></path><path d="M360 255.16 L360 744.85" stroke-width="15" stroke="#3a7cc3"></path><path d="M380 331.76 L380 668.24" stroke-width="15" stroke="#3a7cc3"></path><path d="M400 373.19 L400 626.81" stroke-width="15" stroke="#3a7cc3"></path><path d="M420 287 L420 713" stroke-width="15" stroke="#3a7cc3"></path><path d="M440 277.85 L440 722.15" stroke-width="15" stroke="rgba(255, 255, 255, 1)"></path></g></g><defs><mask id="SvgjsMask1505"><rect width="600" height="1000" fill="#ffffff"></rect></mask><linearGradient x1="50%" y1="0%" x2="50%" y2="100%" gradientUnits="userSpaceOnUse" id="SvgjsLinearGradient1506"><stop stop-color="#0e2a47" offset="0"></stop><stop stop-color="rgba(0, 0, 0, 1)" offset="1"></stop></linearGradient></defs></svg>