<svg xmlns="http://www.w3.org/2000/svg" version="1.1" xmlns:xlink="http://www.w3.org/1999/xlink" xmlns:svgjs="http://svgjs.com/svgjs" width="1440" height="560" preserveAspectRatio="none" viewBox="0 0 1440 560"><g mask="url(&quot;#SvgjsMask3096&quot;)" fill="none"><rect width="1440" height="560" x="0" y="0" fill="url(#SvgjsLinearGradient3097)"></rect><path d="M288 533L287 127" stroke-width="6" stroke="url(#SvgjsLinearGradient3098)" stroke-linecap="round" class="Down"></path><path d="M92 541L91 845" stroke-width="6" stroke="url(#SvgjsLinearGradient3098)" stroke-linecap="round" class="Down"></path><path d="M1373 181L1372 354" stroke-width="8" stroke="url(#SvgjsLinearGradient3099)" stroke-linecap="round" class="Up"></path><path d="M1325 347L1324 -20" stroke-width="8" stroke="url(#SvgjsLinearGradient3099)" stroke-linecap="round" class="Up"></path><path d="M58 457L57 766" stroke-width="10" stroke="url(#SvgjsLinearGradient3099)" stroke-linecap="round" class="Up"></path><path d="M450 485L449 644" stroke-width="8" stroke="url(#SvgjsLinearGradient3098)" stroke-linecap="round" class="Down"></path><path d="M518 202L517 343" stroke-width="8" stroke="url(#SvgjsLinearGradient3098)" stroke-linecap="round" class="Down"></path><path d="M919 227L918 24" stroke-width="10" stroke="url(#SvgjsLinearGradient3099)" stroke-linecap="round" class="Up"></path><path d="M471 441L470 233" stroke-width="10" stroke="url(#SvgjsLinearGradient3098)" stroke-linecap="round" class="Down"></path><path d="M1251 505L1250 220" stroke-width="8" stroke="url(#SvgjsLinearGradient3099)" stroke-linecap="round" class="Up"></path><path d="M1298 3L1297 406" stroke-width="8" stroke="url(#SvgjsLinearGradient3098)" stroke-linecap="round" class="Down"></path><path d="M385 215L384 -114" stroke-width="10" stroke="url(#SvgjsLinearGradient3098)" stroke-linecap="round" class="Down"></path><path d="M1198 4L1197 -224" stroke-width="8" stroke="url(#SvgjsLinearGradient3098)" stroke-linecap="round" class="Down"></path><path d="M28 103L27 413" stroke-width="8" stroke="url(#SvgjsLinearGradient3099)" stroke-linecap="round" class="Up"></path><path d="M227 18L226 392" stroke-width="10" stroke="url(#SvgjsLinearGradient3099)" stroke-linecap="round" class="Up"></path><path d="M1184 155L1183 -257" stroke-width="6" stroke="url(#SvgjsLinearGradient3099)" stroke-linecap="round" class="Up"></path><path d="M1280 542L1279 870" stroke-width="10" stroke="url(#SvgjsLinearGradient3099)" stroke-linecap="round" class="Up"></path><path d="M614 23L613 358" stroke-width="10" stroke="url(#SvgjsLinearGradient3098)" stroke-linecap="round" class="Down"></path><path d="M907 14L906 314" stroke-width="8" stroke="url(#SvgjsLinearGradient3098)" stroke-linecap="round" class="Down"></path><path d="M955 345L954 116" stroke-width="8" stroke="url(#SvgjsLinearGradient3098)" stroke-linecap="round" class="Down"></path><path d="M647 304L646 76" stroke-width="8" stroke="url(#SvgjsLinearGradient3098)" stroke-linecap="round" class="Down"></path><path d="M116 230L115 436" stroke-width="8" stroke="url(#SvgjsLinearGradient3099)" stroke-linecap="round" class="Up"></path><path d="M598 164L597 -63" stroke-width="10" stroke="url(#SvgjsLinearGradient3098)" stroke-linecap="round" class="Down"></path><path d="M597 283L596 579" stroke-width="10" stroke="url(#SvgjsLinearGradient3099)" stroke-linecap="round" class="Up"></path><path d="M959 376L958 178" stroke-width="8" stroke="url(#SvgjsLinearGradient3099)" stroke-linecap="round" class="Up"></path><path d="M68 3L67 291" stroke-width="6" stroke="url(#SvgjsLinearGradient3098)" stroke-linecap="round" class="Down"></path><path d="M961 220L960 576" stroke-width="8" stroke="url(#SvgjsLinearGradient3098)" stroke-linecap="round" class="Down"></path><path d="M765 40L764 -334" stroke-width="6" stroke="url(#SvgjsLinearGradient3099)" stroke-linecap="round" class="Up"></path><path d="M1322 267L1321 -6" stroke-width="10" stroke="url(#SvgjsLinearGradient3099)" stroke-linecap="round" class="Up"></path><path d="M1144 100L1143 436" stroke-width="8" stroke="url(#SvgjsLinearGradient3098)" stroke-linecap="round" class="Down"></path><path d="M797 303L796 462" stroke-width="8" stroke="url(#SvgjsLinearGradient3099)" stroke-linecap="round" class="Up"></path><path d="M147 247L146 390" stroke-width="8" stroke="url(#SvgjsLinearGradient3099)" stroke-linecap="round" class="Up"></path><path d="M537 32L536 -337" stroke-width="8" stroke="url(#SvgjsLinearGradient3098)" stroke-linecap="round" class="Down"></path><path d="M157 89L156 490" stroke-width="6" stroke="url(#SvgjsLinearGradient3099)" stroke-linecap="round" class="Up"></path><path d="M117 166L116 536" stroke-width="6" stroke="url(#SvgjsLinearGradient3098)" stroke-linecap="round" class="Down"></path><path d="M642 188L641 -204" stroke-width="10" stroke="url(#SvgjsLinearGradient3099)" stroke-linecap="round" class="Up"></path></g><defs><mask id="SvgjsMask3096"><rect width="1440" height="560" fill="#ffffff"></rect></mask><linearGradient x1="50%" y1="0%" x2="50%" y2="100%" gradientUnits="userSpaceOnUse" id="SvgjsLinearGradient3097"><stop stop-color="#0e2a47" offset="0"></stop><stop stop-color="rgba(0, 0, 0, 1)" offset="1"></stop></linearGradient><linearGradient x1="0%" y1="0%" x2="0%" y2="100%" id="SvgjsLinearGradient3098"><stop stop-color="rgba(58, 124, 195, 0)" offset="0"></stop><stop stop-color="rgba(58, 124, 195, 1)" offset="1"></stop></linearGradient><linearGradient x1="0%" y1="100%" x2="0%" y2="0%" id="SvgjsLinearGradient3099"><stop stop-color="rgba(58, 124, 195, 0)" offset="0"></stop><stop stop-color="rgba(58, 124, 195, 1)" offset="1"></stop></linearGradient></defs></svg>